<?xml version="1.0" ?>
<!DOCTYPE svg  PUBLIC '-//W3C//DTD SVG 1.1//EN'  'http://www.w3.org/Graphics/SVG/1.1/DTD/svg11.dtd'>
<!-- Uploaded to: SVG Repo, www.svgrepo.com, Generator: SVG Repo Mixer Tools -->
<svg width="800px" height="800px" viewBox="0 0 32 32" enable-background="new 0 0 32 32" version="1.1" xml:space="preserve" xmlns="http://www.w3.org/2000/svg" xmlns:xlink="http://www.w3.org/1999/xlink">
<g id="Security02">
<g>
<path d="M27,18v8c0,0.55-0.45,1-1,1H6c-0.55,0-1-0.45-1-1v-8C5,11.93,9.93,7,16,7S27,11.93,27,18z" fill="#FFC10A"/>
</g>
<g>
<path d="M31,28c0,1.65-1.35,3-3,3H4c-1.65,0-3-1.35-3-3c0-1.65,1.35-3,3-3h24C29.65,25,31,26.35,31,28z" fill="#3F51B5"/>
</g>
<g>
<path d="M16,6c-0.5527,0-1-0.4473-1-1V2c0-0.5527,0.4473-1,1-1s1,0.4473,1,1v3C17,5.5527,16.5527,6,16,6z" fill="#2197F3"/>
</g>
<g>
<path d="M7,8C6.7441,8,6.4883,7.9023,6.293,7.707l-3-3c-0.3906-0.3906-0.3906-1.0234,0-1.4141    s1.0234-0.3906,1.4141,0l3,3c0.3906,0.3906,0.3906,1.0234,0,1.4141C7.5117,7.9023,7.2559,8,7,8z" fill="#2197F3"/>
</g>
<g>
<path d="M25,8c-0.2559,0-0.5117-0.0977-0.707-0.293c-0.3906-0.3906-0.3906-1.0234,0-1.4141l3-3    c0.3906-0.3906,1.0234-0.3906,1.4141,0s0.3906,1.0234,0,1.4141l-3,3C25.5117,7.9023,25.2559,8,25,8z" fill="#2197F3"/>
</g>
</g>
<g id="Security03"/>
<g id="Security04"/>
<g id="Security05"/>
<g id="Security06"/>
<g id="Security07"/>
<g id="Security08"/>
<g id="Security09"/>
<g id="Security10"/>
<g id="Security11"/>
<g id="Security12"/>
<g id="Security13"/>
<g id="Security14"/>
<g id="Security15"/>
<g id="Security16"/>
<g id="Security17"/>
<g id="Security18"/>
<g id="Security19"/>
<g id="Security20"/>
<g id="Security21"/>
</svg>